<mxfile host="Electron" agent="Mozilla/5.0 (Windows NT 10.0; Win64; x64) AppleWebKit/537.36 (KHTML, like Gecko) draw.io/26.0.16 Chrome/132.0.6834.196 Electron/34.2.0 Safari/537.36" version="26.0.16">
  <diagram name="Seite-1" id="9WGXI0Gz3ulHWeq9KiDt">
    <mxGraphModel dx="393" dy="557" grid="1" gridSize="10" guides="1" tooltips="1" connect="1" arrows="1" fold="1" page="1" pageScale="1" pageWidth="827" pageHeight="1169" math="0" shadow="0">
      <root>
        <mxCell id="0" />
        <mxCell id="1" parent="0" />
        <mxCell id="IYvJIk17ja52tGLPDcIV-5" style="edgeStyle=orthogonalEdgeStyle;rounded=0;orthogonalLoop=1;jettySize=auto;html=1;entryX=0.5;entryY=0;entryDx=0;entryDy=0;" edge="1" parent="1" source="IYvJIk17ja52tGLPDcIV-1" target="IYvJIk17ja52tGLPDcIV-4">
          <mxGeometry relative="1" as="geometry" />
        </mxCell>
        <mxCell id="IYvJIk17ja52tGLPDcIV-9" value="Hat Note in" style="edgeLabel;html=1;align=center;verticalAlign=middle;resizable=0;points=[];" vertex="1" connectable="0" parent="IYvJIk17ja52tGLPDcIV-5">
          <mxGeometry x="-0.2103" y="-6" relative="1" as="geometry">
            <mxPoint as="offset" />
          </mxGeometry>
        </mxCell>
        <mxCell id="IYvJIk17ja52tGLPDcIV-11" style="edgeStyle=orthogonalEdgeStyle;rounded=0;orthogonalLoop=1;jettySize=auto;html=1;entryX=0;entryY=0.5;entryDx=0;entryDy=0;" edge="1" parent="1" source="IYvJIk17ja52tGLPDcIV-1" target="IYvJIk17ja52tGLPDcIV-2">
          <mxGeometry relative="1" as="geometry" />
        </mxCell>
        <mxCell id="IYvJIk17ja52tGLPDcIV-12" value="wird ausgebildet von" style="edgeLabel;html=1;align=center;verticalAlign=middle;resizable=0;points=[];" vertex="1" connectable="0" parent="IYvJIk17ja52tGLPDcIV-11">
          <mxGeometry x="-0.2889" y="3" relative="1" as="geometry">
            <mxPoint x="17" as="offset" />
          </mxGeometry>
        </mxCell>
        <mxCell id="IYvJIk17ja52tGLPDcIV-1" value="Lernender" style="ellipse;whiteSpace=wrap;html=1;aspect=fixed;" vertex="1" parent="1">
          <mxGeometry x="240" y="100" width="80" height="80" as="geometry" />
        </mxCell>
        <mxCell id="IYvJIk17ja52tGLPDcIV-2" value="Berufsbildner" style="ellipse;whiteSpace=wrap;html=1;aspect=fixed;" vertex="1" parent="1">
          <mxGeometry x="470" y="100" width="80" height="80" as="geometry" />
        </mxCell>
        <mxCell id="IYvJIk17ja52tGLPDcIV-7" style="edgeStyle=orthogonalEdgeStyle;rounded=0;orthogonalLoop=1;jettySize=auto;html=1;entryX=0;entryY=0.5;entryDx=0;entryDy=0;" edge="1" parent="1" source="IYvJIk17ja52tGLPDcIV-4" target="IYvJIk17ja52tGLPDcIV-6">
          <mxGeometry relative="1" as="geometry" />
        </mxCell>
        <mxCell id="IYvJIk17ja52tGLPDcIV-8" value="Gehört zu" style="edgeLabel;html=1;align=center;verticalAlign=middle;resizable=0;points=[];" vertex="1" connectable="0" parent="IYvJIk17ja52tGLPDcIV-7">
          <mxGeometry x="-0.1956" y="5" relative="1" as="geometry">
            <mxPoint as="offset" />
          </mxGeometry>
        </mxCell>
        <mxCell id="IYvJIk17ja52tGLPDcIV-4" value="Prüfung" style="ellipse;whiteSpace=wrap;html=1;aspect=fixed;" vertex="1" parent="1">
          <mxGeometry x="240" y="310" width="80" height="80" as="geometry" />
        </mxCell>
        <mxCell id="IYvJIk17ja52tGLPDcIV-6" value="Semester" style="ellipse;whiteSpace=wrap;html=1;aspect=fixed;" vertex="1" parent="1">
          <mxGeometry x="470" y="310" width="80" height="80" as="geometry" />
        </mxCell>
        <mxCell id="IYvJIk17ja52tGLPDcIV-13" value="name: str" style="text;html=1;align=center;verticalAlign=middle;whiteSpace=wrap;rounded=0;" vertex="1" parent="1">
          <mxGeometry x="465" y="60" width="90" height="30" as="geometry" />
        </mxCell>
        <mxCell id="IYvJIk17ja52tGLPDcIV-14" value="name: str&lt;div&gt;lehrstart: Date&lt;/div&gt;" style="text;html=1;align=center;verticalAlign=middle;whiteSpace=wrap;rounded=0;" vertex="1" parent="1">
          <mxGeometry x="210" y="60" width="90" height="30" as="geometry" />
        </mxCell>
        <mxCell id="IYvJIk17ja52tGLPDcIV-15" value="note: float" style="text;html=1;align=center;verticalAlign=middle;whiteSpace=wrap;rounded=0;" vertex="1" parent="1">
          <mxGeometry x="300" y="240" width="60" height="30" as="geometry" />
        </mxCell>
        <mxCell id="IYvJIk17ja52tGLPDcIV-16" value="startDatum: Date&lt;div&gt;endDatum: Date&lt;/div&gt;" style="text;html=1;align=center;verticalAlign=middle;whiteSpace=wrap;rounded=0;" vertex="1" parent="1">
          <mxGeometry x="465" y="400" width="110" height="30" as="geometry" />
        </mxCell>
        <mxCell id="IYvJIk17ja52tGLPDcIV-17" value="datum: Date&lt;div&gt;gewichtung: float&lt;/div&gt;" style="text;html=1;align=center;verticalAlign=middle;whiteSpace=wrap;rounded=0;" vertex="1" parent="1">
          <mxGeometry x="210" y="400" width="110" height="30" as="geometry" />
        </mxCell>
      </root>
    </mxGraphModel>
  </diagram>
</mxfile>
